<svg width="28" height="30" viewBox="0 0 28 30" fill="none" xmlns="http://www.w3.org/2000/svg">
<path d="M11.996 0.776013C12.5466 0.281282 13.2608 0.00759888 14.001 0.00759888C14.7412 0.00759888 15.4554 0.281282 16.006 0.776013L27.006 10.66C27.3188 10.9413 27.5689 11.2851 27.7401 11.6693C27.9114 12.0535 27.9999 12.4694 28 12.89V27C28 27.7957 27.6839 28.5587 27.1213 29.1213C26.5587 29.6839 25.7956 30 25 30H20C19.2044 30 18.4413 29.6839 17.8787 29.1213C17.3161 28.5587 17 27.7957 17 27V20C17 19.7348 16.8946 19.4804 16.7071 19.2929C16.5196 19.1054 16.2652 19 16 19H12C11.7348 19 11.4804 19.1054 11.2929 19.2929C11.1054 19.4804 11 19.7348 11 20V27C11 27.7957 10.6839 28.5587 10.1213 29.1213C9.55871 29.6839 8.79565 30 8 30H3C2.20435 30 1.44129 29.6839 0.87868 29.1213C0.316071 28.5587 0 27.7957 0 27V12.89C0 12.04 0.36 11.23 0.996 10.66L11.996 0.776013ZM14.668 2.26401C14.4845 2.09929 14.2466 2.00817 14 2.00817C13.7534 2.00817 13.5155 2.09929 13.332 2.26401L2.332 12.148C2.22779 12.2416 2.1444 12.3559 2.0872 12.4838C2.03001 12.6116 2.0003 12.75 2 12.89V27C2 27.2652 2.10536 27.5196 2.29289 27.7071C2.48043 27.8947 2.73478 28 3 28H8C8.26522 28 8.51957 27.8947 8.70711 27.7071C8.89464 27.5196 9 27.2652 9 27V20C9 19.2044 9.31607 18.4413 9.87868 17.8787C10.4413 17.3161 11.2044 17 12 17H16C16.7956 17 17.5587 17.3161 18.1213 17.8787C18.6839 18.4413 19 19.2044 19 20V27C19 27.2652 19.1054 27.5196 19.2929 27.7071C19.4804 27.8947 19.7348 28 20 28H25C25.2652 28 25.5196 27.8947 25.7071 27.7071C25.8946 27.5196 26 27.2652 26 27V12.89C25.9997 12.75 25.97 12.6116 25.9128 12.4838C25.8556 12.3559 25.7722 12.2416 25.668 12.148L14.668 2.26401Z" fill="white"/>
</svg>
